<?xml version="1.0" standalone="no"?>
<!DOCTYPE svg PUBLIC "-//W3C//DTD SVG 20010904//EN"
 "http://www.w3.org/TR/2001/REC-SVG-20010904/DTD/svg10.dtd">
<svg version="1.0" xmlns="http://www.w3.org/2000/svg"
 width="225.000000pt" height="225.000000pt" viewBox="0 0 225.000000 225.000000"
 preserveAspectRatio="xMidYMid meet">
<metadata>
Created by potrace 1.16, written by Peter Selinger 2001-2019
</metadata>
<g transform="translate(0.000000,225.000000) scale(0.100000,-0.100000)"
fill="#000000" stroke="none">
<path d="M1869 1560 c-41 -4 -89 -17 -123 -34 -93 -45 -112 -81 -211 -383 -47
-145 -89 -263 -93 -263 -4 0 -29 87 -55 193 -76 299 -128 410 -213 453 -36 17
-63 19 -319 19 l-280 0 -55 -30 c-119 -64 -253 -230 -355 -440 -58 -119 -149
-375 -137 -387 4 -4 75 -3 157 1 133 7 156 11 201 34 92 47 120 94 188 311 27
88 58 165 73 185 44 60 135 162 140 158 2 -3 28 -100 58 -216 73 -286 130
-403 212 -437 24 -11 95 -14 290 -14 231 0 262 2 299 19 95 43 189 159 353
435 137 231 221 381 221 395 0 12 -236 13 -351 1z"/>
</g>
</svg>
