<svg class="herodot-logo" xmlns="http://www.w3.org/2000/svg" width="44" height="44"><path fill-rule="evenodd" d="m0 17.355.4-1.145 3.352 1.156 1.33-3.818-3.353-1.156.395-1.134 7.902 2.725-.395 1.133-3.488-1.202-1.33 3.818L8.3 18.934l-.398 1.146L0 17.355zM11.684 1.84 16.245 0l.423 1.035-3.432 1.384.91 2.236 2.957-1.192.417 1.024-2.956 1.192.97 2.378 3.542-1.428.422 1.035-4.672 1.884-3.142-7.709zm17.707 2.972c.816.338 1.62.118 1.996-.782.299-.713.052-1.484-.94-1.895l-1.335-.553-1.11 2.655 1.389.575zM28.414.095l2.515 1.041c1.588.658 2.195 1.99 1.62 3.362-.463 1.108-1.426 1.739-2.666 1.547l.688 3.953-1.345-.557-.54-3.75-1.103-.457-1.257 3.006-1.125-.466 3.213-7.68zm12.077 19.423c1.746-.498 2.693-2.129 2.219-3.773-.478-1.657-2.145-2.529-3.891-2.031-1.77.504-2.697 2.116-2.219 3.773.474 1.645 2.122 2.535 3.891 2.03zm-2.021-7.015c2.366-.675 4.679.582 5.354 2.924.675 2.342-.644 4.622-2.987 5.29-2.355.671-4.68-.582-5.355-2.924-.674-2.342.61-4.612 2.988-5.29zM5.517 33.916c.935 1.204 2.25 1.304 3.517.33 1.21-.93 1.499-2.249.556-3.462l-.496-.639-4.074 3.132.497.64zM3.45 31.374l.438.564 4.197-3.226-.438-.564 1.21-.93 2.008 2.586c1.658 2.134 1.22 4.408-.707 5.89-2.052 1.576-4.25 1.33-5.909-.804L2.24 32.304l1.21-.93zm20.995 8.31c.005-1.485-1.077-2.594-2.51-2.599-1.458-.006-2.525 1.095-2.53 2.58-.006 1.51 1.052 2.619 2.51 2.624 1.433.005 2.524-1.095 2.53-2.604zm-6.88-.025c.01-2.436 1.88-4.294 4.376-4.285 2.52.01 4.352 1.905 4.343 4.318-.009 2.435-1.867 4.318-4.376 4.308-2.52-.01-4.352-1.882-4.343-4.341zm16.24-7.559-1.408 1.726-1.3-1.049 3.93-4.816 1.299 1.048-1.408 1.726 5.195 4.193L39 36.293 33.805 32.1z"/></svg>