<svg width="134px" height="28px" viewBox="0 0 134 28" version="1.1" xmlns="http://www.w3.org/2000/svg" xmlns:xlink="http://www.w3.org/1999/xlink">
	<path d="M64.4274867,14.0041067 C64.4274867,7.65137333 59.8905533,4.67590667 53.8663533,4.67590667 C47.8407533,4.67590667 43.3042867,7.65137333 43.3042867,14.0041067 C43.3042867,21.4805733 48.93042,23.5133733 53.8663533,23.5133733 C58.8008867,23.5133733 64.4274867,21.4805733 64.4274867,14.0041067 M53.8663533,0.247706667 C65.47982,0.247706667 69.5813533,7.07084 69.5813533,14.2943733 C69.5813533,19.7725733 66.35062,27.94064 53.8663533,27.94064 C41.3806867,27.94064 38.1499533,19.7725733 38.1499533,14.2943733 C38.1499533,7.07084 42.2519533,0.247706667 53.8663533,0.247706667" fill="#003B71"></path>
	<polygon fill="#003B71" points="72.4038933 0.900993333 96.0676267 0.900993333 96.0676267 5.32919333 77.5568267 5.32919333 77.5568267 11.46306 93.4906933 11.46306 93.4906933 15.89126 77.5568267 15.89126 77.5568267 22.8595267 96.5030267 22.8595267 96.5030267 27.2867933 72.4038933 27.2867933"></polygon>
	<path d="M127.1235,17.8869133 C126.614833,20.8269133 124.510167,27.94078 112.387567,27.94078 C104.0403,27.94078 97.4710333,23.2946467 97.4710333,13.6771133 C97.4710333,5.98318 102.298233,0.247846667 112.786567,0.247846667 C124.582967,0.247846667 126.325033,7.90584667 126.7245,9.32171333 L121.570167,9.32171333 C121.279433,8.41451333 119.2471,4.67558 113.076367,4.67558 C105.782367,4.67558 102.733167,8.77711333 102.733167,14.2576467 C102.733167,20.31918 107.124967,23.5135133 112.786567,23.5135133 C118.811233,23.5135133 121.460967,19.91878 121.969167,17.8869133 L127.1235,17.8869133 Z" fill="#003B71"></path>
	<path d="M130.28036,2.71660667 C130.713427,2.71660667 131.10076,2.68627333 131.10076,2.16734 C131.10076,1.74920667 130.720893,1.67220667 130.366227,1.67220667 L129.668093,1.67220667 L129.668093,2.71660667 L130.28036,2.71660667 Z M129.668093,4.61314 L129.158493,4.61314 L129.158493,1.23820667 L130.44276,1.23820667 C131.240293,1.23820667 131.634627,1.53267333 131.634627,2.19814 C131.634627,2.80200667 131.255693,3.06520667 130.759627,3.12727333 L131.720493,4.61314 L131.146493,4.61314 L130.257493,3.15060667 L129.668093,3.15060667 L129.668093,4.61314 Z M130.288293,5.36400667 C131.612227,5.36400667 132.65616,4.32660667 132.65616,2.91820667 C132.65616,1.53267333 131.612227,0.487806667 130.288293,0.487806667 C128.948493,0.487806667 127.90456,1.53267333 127.90456,2.91820667 C127.90456,4.32660667 128.948493,5.36400667 130.288293,5.36400667 L130.288293,5.36400667 Z M127.31516,2.91820667 C127.31516,1.23820667 128.67736,0.00014 130.288293,0.00014 C131.882893,0.00014 133.24556,1.23820667 133.24556,2.91820667 C133.24556,4.61314 131.882893,5.85167333 130.288293,5.85167333 C128.67736,5.85167333 127.31516,4.61314 127.31516,2.91820667 L127.31516,2.91820667 Z" fill="#003B71"></path>
	<path d="M17.75466,4.81385333 C17.75466,7.19338667 15.8263933,9.12025333 13.44826,9.12025333 C11.0701267,9.12025333 9.14139333,7.19338667 9.14139333,4.81385333 C9.14139333,2.43665333 11.0701267,0.50792 13.44826,0.50792 C15.8263933,0.50792 17.75466,2.43665333 17.75466,4.81385333" fill="#55565A"></path>
	<path d="M26.8966133,14.0041067 C26.8966133,16.3813067 24.9683467,18.30864 22.5897467,18.30864 C20.2111467,18.30864 18.28288,16.3813067 18.28288,14.0041067 C18.28288,11.6245733 20.2111467,9.69630667 22.5897467,9.69630667 C24.9683467,9.69630667 26.8966133,11.6245733 26.8966133,14.0041067" fill="#55565A"></path>
	<path d="M17.7548933,23.11092 C17.7548933,25.4899867 15.8266267,27.41732 13.4480267,27.41732 C11.07036,27.41732 9.14162667,25.4899867 9.14162667,23.11092 C9.14162667,20.7313867 11.07036,18.8035867 13.4480267,18.8035867 C15.8266267,18.8035867 17.7548933,20.7313867 17.7548933,23.11092" fill="#55565A"></path>
	<path d="M8.61322,14.0013533 C8.61322,16.3794867 6.68495333,18.30822 4.30682,18.30822 C1.92822,18.30822 -4.66666672e-05,16.3794867 -4.66666672e-05,14.0013533 C-4.66666672e-05,11.6222867 1.92822,9.69542 4.30682,9.69542 C6.68495333,9.69542 8.61322,11.6222867 8.61322,14.0013533" fill="#003B71"></path>
</svg>